<svg width="48" height="48" viewBox="0 0 48 48" fill="none" xmlns="http://www.w3.org/2000/svg">
<g clip-path="url(#clip0_473_1225)">
<rect width="48" height="48" rx="7.38462" fill="white"/>
<rect width="48" height="48" rx="7.38462" fill="url(#paint0_linear_473_1225)"/>
<path fill-rule="evenodd" clip-rule="evenodd" d="M24.0001 3.05828C12.4343 3.05828 3.0584 12.4342 3.0584 24C3.0584 35.5658 12.4343 44.9418 24.0001 44.9418C35.566 44.9418 44.9419 35.5658 44.9419 24C44.9419 12.4342 35.566 3.05828 24.0001 3.05828ZM2.94189 24C2.94189 12.3699 12.37 2.94177 24.0001 2.94177C35.6303 2.94177 45.0584 12.3699 45.0584 24C45.0584 35.6302 35.6303 45.0583 24.0001 45.0583C12.37 45.0583 2.94189 35.6302 2.94189 24Z" fill="#D0D5DD"/>
<path fill-rule="evenodd" clip-rule="evenodd" d="M24 18.1169C20.7506 18.1169 18.1165 20.751 18.1165 24.0004C18.1165 27.2497 20.7506 29.8839 24 29.8839C27.2494 29.8839 29.8835 27.2497 29.8835 24.0004C29.8835 20.751 27.2494 18.1169 24 18.1169ZM18 24.0004C18 20.6867 20.6863 18.0004 24 18.0004C27.3137 18.0004 30 20.6867 30 24.0004C30 27.3141 27.3137 30.0004 24 30.0004C20.6863 30.0004 18 27.3141 18 24.0004Z" fill="#D0D5DD"/>
<path fill-rule="evenodd" clip-rule="evenodd" d="M24.0002 19.9802C21.7803 19.9802 19.9808 21.7797 19.9808 23.9996C19.9808 26.2194 21.7803 28.019 24.0002 28.019C26.22 28.019 28.0196 26.2194 28.0196 23.9996C28.0196 21.7797 26.22 19.9802 24.0002 19.9802ZM19.8643 23.9996C19.8643 21.7154 21.716 19.8636 24.0002 19.8636C26.2844 19.8636 28.1361 21.7154 28.1361 23.9996C28.1361 26.2838 26.2844 28.1355 24.0002 28.1355C21.716 28.1355 19.8643 26.2838 19.8643 23.9996Z" fill="#D0D5DD"/>
<path d="M23.9419 0H24.0584V48H23.9419V0Z" fill="#D0D5DD"/>
<path d="M48 23.9414L48 24.0579L-5.09259e-09 24.0579L0 23.9414L48 23.9414Z" fill="#D0D5DD"/>
<path d="M39.9028 0H40.0193V48H39.9028V0Z" fill="#D0D5DD"/>
<path d="M15.9609 0H16.0774V48H15.9609V0Z" fill="#D0D5DD"/>
<path d="M31.9224 0H32.0389V48H31.9224V0Z" fill="#D0D5DD"/>
<path d="M7.98047 0H8.09697V48H7.98047V0Z" fill="#D0D5DD"/>
<path d="M48 39.9023L48 40.0188L-5.09259e-09 40.0188L0 39.9023L48 39.9023Z" fill="#D0D5DD"/>
<path d="M48 15.9609L48 16.0774L-5.09259e-09 16.0774L0 15.9609L48 15.9609Z" fill="#D0D5DD"/>
<path d="M48 31.9219L48 32.0384L-5.09259e-09 32.0384L0 31.9219L48 31.9219Z" fill="#D0D5DD"/>
<path d="M48 7.98047L48 8.09697L-5.09259e-09 8.09697L0 7.98047L48 7.98047Z" fill="#D0D5DD"/>
<g filter="url(#filter0_dd_473_1225)">
<circle cx="24" cy="24" r="12" fill="#1774FD"/>
</g>
<path d="M0 24H48V24C48 37.2548 37.2548 48 24 48V48C10.7452 48 0 37.2548 0 24V24Z" fill="white" fill-opacity="0.2"/>
</g>
<rect x="0.830769" y="0.830769" width="46.3385" height="46.3385" rx="6.55385" stroke="#D0D5DD" stroke-width="1.66154"/>
<defs>
<filter id="filter0_dd_473_1225" x="-4.61539" y="0.923077" width="57.2308" height="57.2308" filterUnits="userSpaceOnUse" color-interpolation-filters="sRGB">
<feFlood flood-opacity="0" result="BackgroundImageFix"/>
<feColorMatrix in="SourceAlpha" type="matrix" values="0 0 0 0 0 0 0 0 0 0 0 0 0 0 0 0 0 0 127 0" result="hardAlpha"/>
<feOffset dy="5.53846"/>
<feGaussianBlur stdDeviation="5.53846"/>
<feColorMatrix type="matrix" values="0 0 0 0 0.0627451 0 0 0 0 0.0941176 0 0 0 0 0.156863 0 0 0 0.06 0"/>
<feBlend mode="normal" in2="BackgroundImageFix" result="effect1_dropShadow_473_1225"/>
<feColorMatrix in="SourceAlpha" type="matrix" values="0 0 0 0 0 0 0 0 0 0 0 0 0 0 0 0 0 0 127 0" result="hardAlpha"/>
<feOffset dy="5.53846"/>
<feGaussianBlur stdDeviation="8.30769"/>
<feColorMatrix type="matrix" values="0 0 0 0 0.0627451 0 0 0 0 0.0941176 0 0 0 0 0.156863 0 0 0 0.1 0"/>
<feBlend mode="normal" in2="effect1_dropShadow_473_1225" result="effect2_dropShadow_473_1225"/>
<feBlend mode="normal" in="SourceGraphic" in2="effect2_dropShadow_473_1225" result="shape"/>
</filter>
<linearGradient id="paint0_linear_473_1225" x1="24" y1="0" x2="24" y2="48" gradientUnits="userSpaceOnUse">
<stop stop-color="white"/>
<stop offset="1" stop-color="#D0D5DD"/>
</linearGradient>
<clipPath id="clip0_473_1225">
<rect width="48" height="48" rx="7.38462" fill="white"/>
</clipPath>
</defs>
</svg>
