<svg width="161" height="48" viewBox="0 0 161 48" fill="none" xmlns="http://www.w3.org/2000/svg">
<path d="M22.75 2C10.5997 2 0.75 11.8497 0.75 24C0.75 36.1503 10.5997 46 22.75 46C33.651 46 42.7002 38.0716 44.4458 27.6667H44.2879C42.6598 33.9925 36.9174 38.6667 30.0833 38.6667C21.9832 38.6667 15.4167 32.1002 15.4167 24C15.4167 15.8998 21.9832 9.33333 30.0833 9.33333C36.9174 9.33333 42.6598 14.0075 44.2879 20.3333H44.4458C42.7002 9.92838 33.651 2 22.75 2Z" fill="#A4BCFD"/>
<path d="M0.75 24C0.75 11.8497 10.5997 2 22.75 2C33.651 2 42.7002 9.92838 44.4458 20.3333H29.6213C27.9931 14.0075 22.2507 9.33333 15.4167 9.33333C7.31649 9.33333 0.75 15.8998 0.75 24Z" fill="#3538CD"/>
<path d="M0.75 24C0.75 36.1503 10.5997 46 22.75 46C33.651 46 42.7002 38.0716 44.4458 27.6667H29.6213C27.9931 33.9925 22.2507 38.6667 15.4167 38.6667C7.31649 38.6667 0.75 32.1002 0.75 24Z" fill="#3538CD"/>
<path d="M76.1891 20.5071C75.5627 15.983 72.0826 13.358 67.5684 13.358C62.2488 13.358 58.2417 17.2358 58.2417 23.8182C58.2417 30.3906 62.1991 34.2784 67.5684 34.2784C72.4107 34.2784 75.6224 31.1463 76.1891 27.2585L72.4704 27.2386C72.0031 29.625 70.0542 30.9673 67.6181 30.9673C64.317 30.9673 61.9505 28.4915 61.9505 23.8182C61.9505 19.2244 64.2971 16.669 67.6281 16.669C70.1039 16.669 72.0428 18.071 72.4704 20.5071H76.1891Z" fill="#101828"/>
<path d="M83.8031 34.3082C86.1994 34.3082 87.6312 33.1847 88.2875 31.902H88.4068V34H91.867V23.7784C91.867 19.7415 88.5759 18.5284 85.6625 18.5284C82.4509 18.5284 79.9849 19.9602 79.1895 22.7443L82.5503 23.2216C82.9082 22.1776 83.9224 21.2827 85.6824 21.2827C87.3528 21.2827 88.2676 22.1378 88.2676 23.6392V23.6989C88.2676 24.733 87.1838 24.7827 84.4892 25.071C81.5261 25.3892 78.6923 26.2742 78.6923 29.7145C78.6923 32.7173 80.8898 34.3082 83.8031 34.3082ZM84.7378 31.6634C83.2364 31.6634 82.1625 30.9773 82.1625 29.6548C82.1625 28.2727 83.3656 27.696 84.9764 27.4673C85.921 27.3381 87.8102 27.0994 88.2776 26.7216V28.5213C88.2776 30.2216 86.9054 31.6634 84.7378 31.6634Z" fill="#101828"/>
<path d="M103.113 18.7273H100.1V15.0682H96.5006V18.7273H94.333V21.5114H96.5006V30.0028C96.4807 32.8764 98.5687 34.2884 101.273 34.2088C102.297 34.179 103.003 33.9801 103.391 33.8509L102.785 31.0369C102.586 31.0867 102.178 31.1761 101.731 31.1761C100.826 31.1761 100.1 30.858 100.1 29.4063V21.5114H103.113V18.7273Z" fill="#101828"/>
<path d="M110.518 34.3082C112.914 34.3082 114.346 33.1847 115.002 31.902H115.122V34H118.582V23.7784C118.582 19.7415 115.291 18.5284 112.377 18.5284C109.166 18.5284 106.7 19.9602 105.904 22.7443L109.265 23.2216C109.623 22.1776 110.637 21.2827 112.397 21.2827C114.068 21.2827 114.982 22.1378 114.982 23.6392V23.6989C114.982 24.733 113.899 24.7827 111.204 25.071C108.241 25.3892 105.407 26.2742 105.407 29.7145C105.407 32.7173 107.605 34.3082 110.518 34.3082ZM111.453 31.6634C109.951 31.6634 108.877 30.9773 108.877 29.6548C108.877 28.2727 110.08 27.696 111.691 27.4673C112.636 27.3381 114.525 27.0994 114.992 26.7216V28.5213C114.992 30.2216 113.62 31.6634 111.453 31.6634Z" fill="#101828"/>
<path d="M125.801 13.6364H122.201V34H125.801V13.6364Z" fill="#101828"/>
<path d="M136.164 34.2983C140.638 34.2983 143.482 31.1463 143.482 26.4233C143.482 21.6903 140.638 18.5284 136.164 18.5284C131.689 18.5284 128.846 21.6903 128.846 26.4233C128.846 31.1463 131.689 34.2983 136.164 34.2983ZM136.184 31.4148C133.708 31.4148 132.495 29.2074 132.495 26.4134C132.495 23.6193 133.708 21.3821 136.184 21.3821C138.62 21.3821 139.833 23.6193 139.833 26.4134C139.833 29.2074 138.62 31.4148 136.184 31.4148Z" fill="#101828"/>
<path d="M153.179 40.0455C157.306 40.0455 160.348 38.1563 160.348 34.2486V18.7273H156.798V21.2528H156.6C156.053 20.1492 154.909 18.5284 152.215 18.5284C148.685 18.5284 145.911 21.2926 145.911 26.3139C145.911 31.2955 148.685 33.7813 152.205 33.7813C154.82 33.7813 156.043 32.3793 156.6 31.2557H156.779V34.1492C156.779 36.3963 155.287 37.321 153.239 37.321C151.071 37.321 150.117 36.2969 149.679 35.402L146.438 36.1875C147.094 38.3253 149.291 40.0455 153.179 40.0455ZM153.209 30.9574C150.833 30.9574 149.58 29.108 149.58 26.294C149.58 23.5199 150.813 21.4815 153.209 21.4815C155.526 21.4815 156.798 23.4006 156.798 26.294C156.798 29.2074 155.506 30.9574 153.209 30.9574Z" fill="#101828"/>
</svg>
